# xmcd CD database file
#
# Track frame offsets:
#	150
#	22075
#	37329
#	60006
#	82223
#	103020
#	120499
#
# Disc length: 2415 seconds
#
# Revision: 2
# Processed by: cddbd v1.4b41PL1 Copyright (c) Steve Scherf et al.
# Submitted via: Feurio! 1.52 - http://www.feurio.com
#
DISCID=58096d07
DTITLE=Scorpions - Lonsome Crow
DYEAR=1900
DGENRE=
TTITLE0=I'm Goin' Mad
TTITLE1=It All Depends
TTITLE2=Leave Me
TTITLE3=In Search Of Peace Of Mind
TTITLE4=In Heritance
TTITLE5=Action
TTITLE6=Lonesome Crow
EXTD=
EXTT0=
EXTT1=
EXTT2=
EXTT3=
EXTT4=
EXTT5=
EXTT6=
PLAYORDER=
